<?xml version="1.0" encoding="UTF-8"?>
<svg width="752pt" height="752pt" version="1.1" viewBox="0 0 752 752" xmlns="http://www.w3.org/2000/svg">
 <path d="m342.18 375.72c41.934 15.098 46.406 56.473 93.934-10.062 60.387 50.32 74.922 62.621 136.43 107.91-3.9141 3.3555-240.43 19.57-294.66 27.957-11.742 1.6758-27.957 5.0312-39.699 5.5898 33.547-36.344 70.449-88.902 104-131.39zm105.68-21.246c8.3867-12.859 85.547-84.988 97.848-90.578l25.16 186.75c-17.891-6.1523-103.44-79.957-123.01-96.168zm-237.63 157.11c-15.098-65.977-34.664-170.54-29.074-234.27 39.699 25.719 68.773 45.848 109.59 68.773 7.8281 5.0312 32.43 17.332 37.461 21.805-35.785 45.848-65.418 87.781-102.88 128.04-4.4727 5.0312-11.742 11.184-15.098 15.656zm-21.246-249.37c84.988-2.2383 212.47-17.891 314.23-21.805 68.773-2.7969 39.141-1.1172-15.098 50.32-12.301 11.742-81.633 79.957-91.137 95.609-12.301-2.2383-192.9-109.03-208-124.12zm329.32-38.578c-29.633 1.6758-59.266 2.2383-88.902 3.9141-67.094 2.7969-143.14 12.859-213.03 16.773-67.094 3.9141-50.879-5.0312-51.441 35.227-1.6758 95.609 5.5898 114.62 24.043 206.32 16.215 83.309-15.098 23.484 294.1 12.301 144.25-5.0312 106.79 3.9141 89.461-153.76-2.7969-26.277-6.7109-54.793-10.625-81.633-2.7969-16.215 1.1172-8.3867 2.2383-16.773 1.1172-7.8281-1.1172-2.2383-8.3867-15.656-5.5898-10.625-24.043-7.8281-37.461-6.7109z" fill-rule="evenodd"/>
</svg>
